<?xml version="1.0" encoding="utf-8"?>
<!-- Generator: Adobe Illustrator 28.2.0, SVG Export Plug-In . SVG Version: 6.00 Build 0)  -->
<svg version="1.1" id="Layer_1" xmlns="http://www.w3.org/2000/svg" xmlns:xlink="http://www.w3.org/1999/xlink" x="0px" y="0px"
	 viewBox="0 0 550 500" style="enable-background:new 0 0 550 500;" xml:space="preserve">
<style type="text/css">
	.st0{fill:url(#SVGID_1_);}
	.st1{fill:url(#SVGID_00000080202812504452760420000006827486246294250160_);}
	.st2{fill:#FFFFFF;}
</style>
<g>
	<linearGradient id="SVGID_1_" gradientUnits="userSpaceOnUse" x1="275" y1="6.0669" x2="275" y2="470.3637">
		<stop  offset="0" style="stop-color:#F49D37"/>
		<stop  offset="1" style="stop-color:#D8315B"/>
	</linearGradient>
	<path class="st0" d="M440.6,131.83c0.89-7.75-0.42-14.08-2.9-19.96c-8.79-20.83-24.49-33.15-46.88-36.72
		c-12.99-2.07-25.58-0.46-37.67,4.69c-2.5,1.06-3.76,0.4-5.4-1.57c-48.99-58.76-139.48-38.1-165.21,28.06
		c-0.59,1.52-1.27,3.01-2,4.73c-18.62-4.71-36.33-3.91-52.43,7.11c-10.81,7.4-17.94,17.45-20.41,28.15
		c4.89,0.69,9.81,1.08,14.59,2.11c29,6.21,50.31,22.18,61.44,50.1c2.12,5.32,2.36,11.71,2.12,17.55c-0.24,5.9-3.39,8.11-9.27,8.27
		c-5.33,0.15-10.66-0.02-16,0.02c-5.48,0.04-9.38-2.26-10.98-7.62c-5.55-18.65-26.96-32.16-48.53-31.87
		c-22.22,0.3-43.18,13.68-51.29,33.08c-10.08,24.11-1.13,53.12,21.34,69.54c11.55,8.44,24.43,12.78,38.69,12.82
		c33,0.09,65.99,0.06,98.99,0.09c8.13,0.01,10.39,2.14,10.43,10.36c0.13,29.5,0.23,58.99,0.18,88.49
		c-0.01,4.14,0.85,7.59,3.11,11.18c12.92,20.52,6.02,46.63-14.65,56.38c-17.89,8.44-40.15,0.87-48.92-16.63
		c-9.4-18.76-2.77-40.97,15.08-50.47c1.62-0.86,3.53-1.34,4.86-2.51c1.3-1.15,2.86-2.95,2.87-4.47c0.11-16.49-0.16-32.99-0.09-49.49
		c0.02-4.52-2.84-4.15-5.66-4.15c-21.66,0-43.33,0.08-64.99,0.07c-20.61-0.01-39.92-4.85-57.61-15.66
		c-49.25-30.1-59.99-87.21-36.65-130.5c9.93-18.42,25.03-31.93,44.48-40c4.72-1.96,6.77-4.63,7.82-9.51
		c7.47-34.87,28.27-58.14,62.13-69.24c7.34-2.41,15.29-3.09,23.02-4.08c3.94-0.5,6.57-1.94,8.84-5.27
		c20.08-29.5,47.99-47.77,82.57-55.35C285.59,0.83,322.39,8.32,355,33.58c4.62,3.58,8.85,4.95,14.95,4.26
		c36.76-4.15,66.65,8.95,89.56,37.76c14.16,17.8,20.29,38.39,18.96,61.04c-0.26,4.41,1.01,6.22,4.98,8.04
		c60.13,27.5,77.85,96.82,45.94,146.48c-20.48,31.88-50.94,46.99-88.49,47.75c-21.82,0.44-43.66,0.1-65.49,0.09
		c-7.42,0-7.5-0.03-7.58,7.44c-0.15,14.5-0.06,29-0.41,43.49c-0.11,4.43,1.26,6.68,5.4,8.67c16.61,8.02,24.48,25.98,19.66,43.58
		c-4.64,16.96-21.28,29.09-38.56,28.12c-28.67-1.62-44.58-34.21-28.33-58.68c3.25-4.9,4.41-9.57,4.39-15.23
		c-0.1-28.16,0.08-56.33,0.16-84.49c0.03-9.48,1.93-11.45,11.44-11.46c33.16-0.05,66.33,0.07,99.49-0.12
		c30.55-0.17,58-23.81,62.95-52.82c6.55-38.41-22.05-68.18-52.4-75.08c-6.61-1.5-13.55-1.48-20.29-2.46
		c-1.91-0.28-4.4-1.11-5.37-2.54c-14.5-21.31-34.95-27.5-59.34-23.59c-11.82,1.9-21.99,7.36-31.41,16.3
		c-8.83-24.21-24.95-39.8-50.7-43.56c-20.81-3.04-47.05,6.56-58.19,30.06c-6.14-1.64-12.21-3.11-18.16-5
		c-1.03-0.33-2.26-2.63-2.05-3.77c1.09-5.85,1.6-12.11,4.17-17.32c12.06-24.4,32.22-37.54,59.17-39.99
		c29.51-2.68,52.82,8.94,71.17,31.66c0.75,0.93,3.52,1.14,4.87,0.55c16.26-7.05,33.08-8.82,50.37-5.38
		c15.16,3.01,28.73,9.42,40.03,20.22C437.13,128.82,438.47,129.94,440.6,131.83z M191.88,443.42c6.88,0.05,12.42-5.17,12.37-11.66
		c-0.05-6.55-5.23-11.9-11.59-11.98c-6.84-0.09-12.32,5.42-12.31,12.37C180.34,438.45,185.4,443.38,191.88,443.42z M356.42,443.43
		c6.58,0.08,12.39-5.47,12.37-11.83c-0.03-5.93-5.85-11.59-12.03-11.7c-6.79-0.12-12.07,4.99-12.19,11.81
		C344.45,437.87,350,443.35,356.42,443.43z"/>
	
		<linearGradient id="SVGID_00000174572934160280601820000004201504183927160480_" gradientUnits="userSpaceOnUse" x1="274.586" y1="181.3077" x2="274.586" y2="493.9331">
		<stop  offset="0" style="stop-color:#F49D37"/>
		<stop  offset="1" style="stop-color:#D8315B"/>
	</linearGradient>
	<path style="fill:url(#SVGID_00000174572934160280601820000004201504183927160480_);" d="M256.48,338.25
		c0-26.66,0.07-53.32-0.13-79.97c-0.02-2.05-1.31-4.91-2.95-6.02c-15.63-10.56-21.73-29.08-15.11-47.01
		c5.85-15.86,23.62-25.96,41.53-23.6c15.82,2.09,28.24,12.86,32.35,28.06c4.17,15.43-1.39,31.85-14.3,41.27
		c-3.02,2.21-4.29,4.64-4.29,8.33c-0.01,46.65-0.13,93.3-0.21,139.95c0,2.33,0.15,4.68-0.03,7c-0.79,10.45,0.94,18.88,9.19,27.44
		c14.13,14.66,10.79,39.4-4.69,52.24c-15.18,12.59-38.78,10-52.08-5.7c-12.29-14.52-10.02-38.73,5.35-51.63
		c4.07-3.41,5.4-6.93,5.37-11.89c-0.13-26.16-0.06-52.32-0.06-78.48C256.44,338.25,256.46,338.25,256.48,338.25z M274.55,205.88
		c-6.87-0.17-12.35,5.19-12.44,12.18c-0.08,6.59,5.56,12.88,11.85,13.21c6.42,0.34,12.94-5.92,13.06-12.52
		C287.16,211.76,281.63,206.06,274.55,205.88z M262.68,455.88c-0.21,6.48,4.76,11.73,11.39,12.04c6.51,0.3,12.4-5.04,12.67-11.49
		c0.26-6.1-5.66-12.04-12.08-12.12C268.27,444.23,262.89,449.43,262.68,455.88z"/>
</g>
<path class="st2" d="M191.88,443.42c-6.48-0.04-11.53-4.98-11.54-11.26c0-6.96,5.47-12.46,12.31-12.37
	c6.37,0.08,11.54,5.43,11.59,11.98C204.3,438.25,198.76,443.47,191.88,443.42z"/>
<path class="st2" d="M356.42,443.43c-6.42-0.08-11.97-5.57-11.86-11.72c0.12-6.82,5.4-11.93,12.19-11.81
	c6.19,0.11,12.01,5.77,12.03,11.7C368.82,437.96,363.01,443.52,356.42,443.43z"/>
<path class="st2" d="M274.55,205.88c7.07,0.17,12.61,5.88,12.48,12.86c-0.12,6.6-6.65,12.86-13.06,12.52
	c-6.29-0.33-11.94-6.62-11.85-13.21C262.21,211.08,267.68,205.72,274.55,205.88z"/>
<path class="st2" d="M262.68,455.88c0.21-6.45,5.59-11.65,11.98-11.57c6.42,0.08,12.34,6.02,12.08,12.12
	c-0.27,6.45-6.16,11.79-12.67,11.49C267.44,467.62,262.47,462.36,262.68,455.88z"/>
</svg>
